{"title":"Bol Bachchan  [2012]-1CD-DVDRip-AC3-By-K@rtik [EXD Exclusive]","uid":7650168,"size":744375553,"categoryP":"video","categoryS":"movies","magnet":"?xt=urn:btih:3dd2b6aa5b732aab72891d41f06088c5afcc2a68&amp;dn=Bol+Bachchan++%5B2012%5D-1CD-DVDRip-AC3-By-K%40rtik+%5BEXD+Exclusive%5D&amp;tr=udp%3A%2F%2Ftracker.openbittorrent.com%3A80&amp;tr=udp%3A%2F%2Fopen.demonii.com%3A1337&amp;tr=udp%3A%2F%2Ftracker.coppersurfer.tk%3A6969&amp;tr=udp%3A%2F%2Fexodus.desync.com%3A6969","seeders":0,"leechers":1,"uploader":"TeamExD","files":4,"time":1347999698,"description":"Format                                   : Matroska\nFormat version                           : Version 2\nFile size                                : 696 MiB\nDuration                                 : 2h 23mn\nOverall bit rate                         : 677 Kbps\nMovie name                               : Bol Bachchan  [2012]1CD-DVDRip-AC3-By-K@rtik [EXD Exclusive]\n\nCodec ID                                 : V_MPEG4/ISO/AVC\nDuration                                 : 2h 23mn\nBit rate                                 : 548 Kbps\nWidth                                    : 688 pixels\nHeight                                   : 288 pixels\nDisplay aspect ratio                     : 2.40:1\nFrame rate                               : 29.970 fps\nColor space                              : YUV\nChroma subsampling                       : 4:2:0\nBit depth                                : 8 bits\nScan type                                : Progressive\nBits/(Pixel*Frame)                       : 0.092\nStream size                              : 550 MiB (79%)\nTitle                                    : K@rtik\n\nCodec ID                                 : A_AC3\nDuration                                 : 2h 23mn\nBit rate mode                            : Constant\nBit rate                                 : 128 Kbps\nChannel(s)                               : 2 channels\nChannel positions                        : Front: L R\nSampling rate                            : 48.0 KHz\nBit depth                                : 16 bits\nCompression mode                         : Lossy\nStream size                              : 131 MiB (19%)\nTitle                                    : K@rtik\nLanguage                                 : Hindi\n &lt;a href=&quot;\nhttp://imageshack.us/a/img194/4245/17054413.png&quot; rel=&quot;nofollow&quot; target=&quot;_NEW&quot;&gt;\nhttp://imageshack.us/a/img194/4245/17054413.png&lt;/a&gt; &lt;a href=&quot;\nhttp://imageshack.us/a/img138/7755/27154423.png&quot; rel=&quot;nofollow&quot; target=&quot;_NEW&quot;&gt;\nhttp://imageshack.us/a/img138/7755/27154423.png&lt;/a&gt; &lt;a href=&quot;\nhttp://imageshack.us/a/img407/2683/83455176.png&quot; rel=&quot;nofollow&quot; target=&quot;_NEW&quot;&gt;\nhttp://imageshack.us/a/img407/2683/83455176.png&lt;/a&gt; &lt;a href=&quot;\nhttp://imageshack.us/a/img849/9430/58533229.png&quot; rel=&quot;nofollow&quot; target=&quot;_NEW&quot;&gt;\nhttp://imageshack.us/a/img849/9430/58533229.png&lt;/a&gt; &lt;a href=&quot;\nhttp://imageshack.us/a/img692/2537/68383041.png&quot; rel=&quot;nofollow&quot; target=&quot;_NEW&quot;&gt;\nhttp://imageshack.us/a/img692/2537/68383041.png&lt;/a&gt; &lt;a href=&quot;\nhttp://imageshack.us/a/img254/9590/67243946.png&quot; rel=&quot;nofollow&quot; target=&quot;_NEW&quot;&gt;\nhttp://imageshack.us/a/img254/9590/67243946.png&lt;/a&gt; &lt;a href=&quot;\nhttp://imageshack.us/a/img545/1530/32895937.png&quot; rel=&quot;nofollow&quot; target=&quot;_NEW&quot;&gt;\nhttp://imageshack.us/a/img545/1530/32895937.png&lt;/a&gt; &lt;a href=&quot;\nhttp://imageshack.us/a/img407/2797/77565606.png&quot; rel=&quot;nofollow&quot; target=&quot;_NEW&quot;&gt;\nhttp://imageshack.us/a/img407/2797/77565606.png&lt;/a&gt; &lt;a href=&quot;\nhttp://imageshack.us/a/img560/200/52413067.png&quot; rel=&quot;nofollow&quot; target=&quot;_NEW&quot;&gt;\nhttp://imageshack.us/a/img560/200/52413067.png&lt;/a&gt; &lt;a href=&quot;\nhttp://imageshack.us/a/img713/4788/61718664.png&quot; rel=&quot;nofollow&quot; target=&quot;_NEW&quot;&gt;\nhttp://imageshack.us/a/img713/4788/61718664.png&lt;/a&gt; &lt;a href=&quot;\nhttp://imageshack.us/a/img593/5987/42733757.png&quot; rel=&quot;nofollow&quot; target=&quot;_NEW&quot;&gt;\nhttp://imageshack.us/a/img593/5987/42733757.png&lt;/a&gt;","torrent":{"xt":"urn:btih:3dd2b6aa5b732aab72891d41f06088c5afcc2a68","amp;dn":"Bol+Bachchan++%5B2012%5D-1CD-DVDRip-AC3-By-K%40rtik+%5BEXD+Exclusive%5D","amp;tr":["udp%3A%2F%2Ftracker.openbittorrent.com%3A80","udp%3A%2F%2Fopen.demonii.com%3A1337","udp%3A%2F%2Ftracker.coppersurfer.tk%3A6969","udp%3A%2F%2Fexodus.desync.com%3A6969"],"infoHash":"3dd2b6aa5b732aab72891d41f06088c5afcc2a68","infoHashBuffer":{"type":"Buffer","data":[61,210,182,170,91,115,42,171,114,137,29,65,240,96,136,197,175,204,42,104]},"announce":[],"urlList":[]}}